<svg xmlns="http://www.w3.org/2000/svg" viewBox="0 0 766.05 485.84"  xmlns:v="https://vecta.io/nano"><path d="M395.65 0l170.08 20.33-40.2 145.65z" fill="#d12053"/><path d="M529.9 169.44c-1.13-1.59 0-3.08.35-4.51q9.33-34.02 18.8-68.02 9.95-36 19.88-72a5 5 0 0 1 1-2.61c1.33.46 1.75 1.7 2.43 2.64q59.51 82.64 119 165.28l1.87 2.69c.24.41.16.95-.56 1-3 .72-6-.05-9-.53l-135-21.24c-6.25-1-12.49-2.03-18.77-2.7z" fill="#e2136e"/><path d="M529.9 169.44c.75-1.11 1.91-1 3-.86l20.35 3.17 21.77 3.37 19.63 3.13 17.49 2.7 20 3.23 17.15 2.6 20 3.21 17.13 2.66c2.11.36 4.3.38 6.31 1.26a16.63 16.63 0 0 1-3.33 2.15l-135.22 68.38a6.72 6.72 0 0 1-2.67 1.08 3.53 3.53 0 0 1-1-2.28q-10.12-45.46-20.24-90.92c-.19-.95-.24-1.92-.37-2.88z" fill="#d12053"/><path d="M526.24 173.32q7.74 34.8 15.49 69.61l9.64 43.34c.43 1.87.25 3-1.37 4.33q-36.76 29.65-73.3 59.47a2.58 2.58 0 0 1-1.88.87l50.63-177.61z" fill="#9e1638"/><path d="M180.62 272.02a12.87 12.87 0 0 1-1.64.08 64 64 0 0 0-14.9 0 2.73 2.73 0 0 1-3.19-1.65c-9.64-17.76-21.85-33.86-32.92-50.69l-12.84-19c-.48-.7-1-1.4-1.43-2.11-.69-1.06-1.6-2.27-2.84-1.92-1.54.45-.75 2.1-.75 3.19q-.08 33.9 0 67.8v4.49a54 54 0 0 0-14.31 0c-.85-1.22-.52-2.35-.52-3.4q0-70.35 0-140.71v-.36c0-3.75-.07-3.27 3.08-3a63.17 63.17 0 0 0 11.26-.22c.92 1.28.49 2.66.49 3.95l.06 59.42c0 1.23-.78 3 .68 3.61s2.65-.84 3.67-1.86a118.4 118.4 0 0 0 9.89-11.67q19.36-25.51 38.83-51.06c1.39-1.84 2.67-2.76 5.09-2.28 3.06.61 6.22.19 9.71-.15a10.77 10.77 0 0 1-2.42 3.57l-47.38 58.7c-.15.19-.31.37-.45.57-2.29 3.12-2.5 2.21-.21 5.5l22.11 31.67c10.09 14.29 20 28.72 29.11 43.63.63 1.12 1.64 2.08 1.82 3.9zm187.3-77.67a39.75 39.75 0 0 1 7.48-9.8c9.15-8.27 19.63-9.46 30.88-5.39 5.4 1.95 8.93 6.14 11.34 11.26a42.88 42.88 0 0 1 3.7 14.39c.38 4 .59 8 .6 12v51.75c0 .6-.05 1.21 0 1.82.13 1.54-.68 1.89-2 1.69a41.17 41.17 0 0 0-11.2.14c-.88-1.4-.48-2.77-.48-4.06l-.06-50.65a65.51 65.51 0 0 0-2.07-17.3 22 22 0 0 0-2.77-6.31 13.06 13.06 0 0 0-7.65-5.82c-8.68-2.31-20.86-1.11-25.85 12.19a38.49 38.49 0 0 0-2.48 12.08c-.18 5-.23 10-.24 14.93v42.28c0 2.61-.09 2.78-2.61 2.43-3.54-.49-7 0-10.79.18V124.57a59.72 59.72 0 0 0 11.73 0c1.34-.18 1.7.56 1.67 1.71v67.99z" fill="#231f20"/><path d="M698.41 192.79l-49.43-68.36 79.93-14.41-30.5 82.77z" fill="#d12053"/><path d="M300.8 273.62a41.87 41.87 0 0 1-20.56-4.83c-1.72-.9-2.13-1.88-1.54-3.76 1-3.24 1.69-6.58 2.54-9.87.2-.74-.15-1.89 1.08-2 .86-.07 1.13.77 1.51 1.39a31.32 31.32 0 0 0 5.4 6.84 32.62 32.62 0 0 0 3.06 2.58c5.35 3.82 11 5 17.1 1.83a17.17 17.17 0 0 0 9.79-15.15c.41-7.44-2.7-12.88-9.59-16-4.2-2-8.66-3.16-13-4.7-13-4.61-17.72-11.4-17.5-25.17a31.33 31.33 0 0 1 2.34-11.72c3.69-8.79 10.42-14 19.68-15.53a35.13 35.13 0 0 1 22.34 3.25c2.46 1.26 2.42 1.24 1.67 3.76l-2.88 10.15c-.17.6-.29 1.26-1 1.34s-1-.46-1.28-1.06a25.12 25.12 0 0 0-5.26-7.81c-7.6-7.81-19-3.19-22.47 3.85-4.22 8.69-1.46 18.15 6.93 22.92 3.61 2 7.55 3.32 11.4 4.8a70.79 70.79 0 0 1 8.34 3.63c7.23 3.89 11.08 9.85 11.57 18.11 1.11 19.14-12.16 33.23-29.67 33.15z" fill="#231f20"/><path d="M545.45 434.47c7.59-8.88 17.88-8.26 23.45.73 1.1-.38 1.43-1.52 2.15-2.26 4-4.09 8.66-5.71 14.23-4.12s7.84 5.8 8.89 10.95a37.1 37.1 0 0 1 .65 7.6v18.22c0 2.56-.08 2.56-2.68 2.64h-.36c-4 .07-4 .07-4-3.88q0-9.1 0-18.22a19.47 19.47 0 0 0-.78-6.11c-1.06-3.26-3-5.6-6.61-5.92a8.57 8.57 0 0 0-8.34 4.17 12.12 12.12 0 0 0-1.76 6.95q.06 9.82 0 19.67c0 3.34 0 3.34-3.45 3.32a7.93 7.93 0 0 0-1.09 0c-1.84.21-2.26-.76-2.24-2.39v-14.57c0-3 .26-6.06-.31-9.08-1-5.45-3.86-8.33-8.11-8.13a9.87 9.87 0 0 0-9 9 32.58 32.58 0 0 0-.09 3.28v18.94c0 2.94-.06 3-3.08 3-4.46 0-4 .13-4-3.89q-.06-16.38-.1-32.78c0-.91-.36-2.17 1-2.33s3.16-.52 4.59.37c.29.19.29.89.36 1.36.15 1.13-.14 2.4.68 3.48z" fill="#808285"/><path d="M586.18 253.09q22.53-11.49 45.06-23 30-15.27 60-30.51l3.77-1.78-4.56 14c-.5 1.55-1.91 1.72-3.11 2.2l-98.27 39.46c-.44.18-.91.3-1.37.45-.8.34-1.6.58-1.52-.82z" fill="#e2146e"/><path d="M765.54 144.19l-44.37.56 12.55-34.08 32.09 32.72z" fill="#e2136e"/><path d="M416.83 429.83l-5.67 6c-2.41 2.57-4.71 5.24-7.24 7.68-1.49 1.43-1.28 2.44-.13 3.93l13.09 17.48c.7.94 1.31 1.94 2.27 3.39-2.7 0-4.84-.05-7 0-1.5 0-2.08-1-2.79-2q-4.59-6.35-9.19-12.67c-.84-1.17-1.73-2.3-2.68-3.56-2.64 1.68-4.13 3.63-3.88 6.86s0 6.31.06 9.46c0 1.39-.56 1.86-1.93 2-5.12.42-5.27.33-5.27-4.81V412.6c0-1.25.67-1.74 1.82-1.75h2.91c1.67-.1 2.42.58 2.38 2.33-.07 3.64 0 7.28 0 10.92v21.75c1.39.43 1.63-.65 2.11-1.21 3.55-4.15 7.15-8.26 10.54-12.54 1.74-2.18 3.62-3.43 6.49-3a25.55 25.55 0 0 0 3.61 0zM219.6 469.15a32.1 32.1 0 0 1-9.36-1.24 24 24 0 0 1-17.76-21.27c-.54-5.32-.52-10.66 1.38-15.82 3.58-9.75 10.58-15.4 20.69-17.32a32.17 32.17 0 0 1 16.52.94c.85.29 2.23.41 2.05 1.66-.22 1.52-.38 3.19-1.47 4.41-.58.64-1.34-.05-2-.24a30 30 0 0 0-12.19-1.17c-8.07 1-15.5 5.9-17.44 16.88a29.14 29.14 0 0 0 .62 13.35c2.37 8.09 8.78 13.18 17.32 13.78a28.74 28.74 0 0 0 11.5-1.21c1.15-.39 2.44-1.29 3.05.95.93 3.38 1 3.74-1.45 4.5a37.76 37.76 0 0 1-5.65 1.35c-1.92.31-3.88.32-5.81.45zm510.58-39.81c7.14-.62 7.12-.61 9.38 5.48 3 8.07 6.16 16.08 8.75 24.28 1.1-.07 1.07-.89 1.28-1.54l8.26-24.88c1.31-3.91.86-3.55 5.09-3.57h2.69c.78 1 .28 1.64 0 2.27-4.67 12.12-9 24.37-14.13 36.31-2.11 4.92-4.59 9.66-8.58 13.42a20 20 0 0 1-6.71 4.29c-2.13.81-2.48.62-3.19-1.46a14 14 0 0 0-.47-1.75c-.71-1.47-.1-2.2 1.24-2.78a20.24 20.24 0 0 0 8.27-6.94c2.28-3.06 2.86-6 1.2-9.76-4.24-9.8-8.02-19.8-12.02-29.7a10.4 10.4 0 0 1-1.06-3.67z" fill="#808285"/><path d="M459.99 90.55l-64.2-60.44c-.25-.24-.45-.54-.69-.82.49-1.17 1.47-.63 2.18-.64 4.25-.05 8.51.11 12.75-.08a5.53 5.53 0 0 1 5.16 2.5l32.26 41.37 13.41 17.26c.16.74-.14 1.01-.87.85z" fill="#9e1638"/><path d="M697.78 434.69a21.91 21.91 0 0 1 4.74-4.27c9.94-5.81 20.94.28 21.46 12.14.33 7.75.1 15.53.12 23.3v.73c.07 1.24-.57 1.61-1.76 1.73-5.12.5-5.38.31-5.38-4.71v-16.75a35.17 35.17 0 0 0-.18-4.36c-.54-4.49-3.06-7.33-7.09-8.14a10 10 0 0 0-10.18 4.85 13.15 13.15 0 0 0-1.59 6.64v19.3c0 3.12 0 3.12-3.27 3.14h-1.82c-1.2.05-1.81-.48-1.79-1.71v-35.32c0-1.68.48-2.21 2-2.13a11.05 11.05 0 0 0 1.82 0c1.78-.18 2.38.68 2.33 2.35a4.75 4.75 0 0 0 .59 3.21zm-349.77-.31c1.26-.1 1.52-.89 2-1.37 4.47-4.38 9.7-6 15.68-3.89s8.58 7 8.94 13c.33 5.57.13 11.17.16 16.76v7.28c0 1.48-.4 2.36-2.05 2.19a5.93 5.93 0 0 0-.73 0c-4.38 0-4 .27-4-3.89v-17.49a24.55 24.55 0 0 0-.52-5.06c-1-5-4.12-7.81-8.65-7.73a10.23 10.23 0 0 0-9.72 8.32 26.73 26.73 0 0 0-.18 4v18.95c0 2.8-.07 2.8-2.83 2.88h-.73c-3.55 0-3.56 0-3.57-3.57q0-16.57 0-33.16c0-.92-.34-2.15 1.05-2.32s3.24-.62 4.57.38c.76.57.33 1.84.43 2.79l.15 1.93zm128.15 34.68c-11.28.29-20.75-6.59-20.19-21.57.45-12.13 11.11-20.67 23.2-19.08 1.92.26 3.79.82 5.68 1.23 1.51.33 2 1.19 1.45 2.65a7.79 7.79 0 0 0-.32 1c-.37 1.68-.94 2.55-3 1.67a15 15 0 0 0-8.59-.77c-7.59 1.36-12.35 8.5-11.19 16.62 1.23 8.61 7 13.11 15 12.47a24.17 24.17 0 0 0 5-.9c2.26-.68 2.27-.65 2.84 1.67.65 2.63.45 3-2.29 3.85a21.61 21.61 0 0 1-7.59 1.16z" fill="#808285"/><path d="M586.18 253.09c.26.76 1 .68 1.56.83-2.88 1.8-6.2 2.6-9.24 4a6.8 6.8 0 0 1-2.8.62 54.44 54.44 0 0 1 10.48-5.45z" fill="#eb5f9c"/><path d="M459.99 90.55l.87-.85c1.81 1.3 2.74 3.32 3.93 5.17a16 16 0 0 1-4.8-4.32z" fill="#c57387"/><path d="M76.01 208.91a47 47 0 0 0-9.47-21c-10.77-13.4-31.94-14.62-44-2.31a58.69 58.69 0 0 0-6.49 7.85c-.58.85-1.2 1.68-1.8 2.52l-.59-.17v-66.64c0-.85-.06-1.71 0-2.55.12-1.62-.59-2.15-2.16-2a45.58 45.58 0 0 1-8 .12c-3.48-.23-3.48-.2-3.49 3.45v.36q.06 69.45.13 138.9v2.55c0 1.29.76 1.58 1.9 1.61a3.66 3.66 0 0 0 2.77-1.52l7.84-8.13c.64-.65 1.14-1.61 2.34-1.54 1.19 1.5 2.28 3.13 3.61 4.52 9 9.32 19.8 10.71 31.52 6.79 9-3 15.18-9.48 19.58-17.63 7.73-14.24 9.29-29.45 6.31-45.18zm-17.17 38.7a34.06 34.06 0 0 1-8 14.09 19.21 19.21 0 0 1-27.47.16c-5.08-4.95-7.4-11.28-8.82-18a68.3 68.3 0 0 1-1.06-14.13 86.76 86.76 0 0 1 3.16-24.1 41.47 41.47 0 0 1 5.34-11.51 20.33 20.33 0 0 1 34.25 1 43 43 0 0 1 5.47 16.09 80.22 80.22 0 0 1-2.87 36.35z" fill="#e2136e"/><path d="M262.13 265.91c-.29-1.86-1.66-.61-2.59-.6-.36 0-.72.12-1.08.15-3.86.34-5.41-.94-5.65-4.8l-.11-6.19.09-45.54a43.19 43.19 0 0 0-3.38-17.75c-3.12-7-8.35-11.6-15.87-13.19-12.87-2.72-24.22.88-34.46 8.72-.56.43-1.31.83-1.32 1.63v9.46c0 1 1.08 1 1.65.57a5.59 5.59 0 0 0 1.14-1.81c5.3-9.33 15.11-13.39 25.48-10.58a16.36 16.36 0 0 1 10.92 8.93 29.15 29.15 0 0 1 2.65 15.6 8.54 8.54 0 0 1-6 7.89 35 35 0 0 1-3.8 1.22l-10.69 2.22c-5.24 1-10.46 2.11-15.37 4.31a21.19 21.19 0 0 0-12.59 15.06 33.64 33.64 0 0 0-.8 10.86c1.35 14.84 13 22.23 23.79 21.6a31.86 31.86 0 0 0 22.67-10.85c.78-.88 1.25-2.11 2.65-2.52.45 1.49.78 3 1.33 4.4 1.21 3.1 3.28 5.44 6.6 6.28a20.72 20.72 0 0 0 13.51-1.34c1.84-.84 1.45-2.44 1.23-3.73zm-23.62-12.54c-4 5.13-8.17 9.92-14.87 11.66-8 2.07-15.68-1.94-18.25-9.76a24.63 24.63 0 0 1-.52-14 16.87 16.87 0 0 1 8-10.44 31.19 31.19 0 0 1 8.7-3.64c5.64-1.39 11.33-2.6 17.62-4v28.16a3.21 3.21 0 0 1-.68 1.97z" fill="#231f20"/><path d="M285.83 440.34c-.7-.4-1.7-.33-2.26-1.54l2.3-1.43c8.39-5.79 7.63-17.1-1.45-21.65a16.78 16.78 0 0 0-4.09-1.47 50.37 50.37 0 0 0-16.66-.27c-4.26.54-4.25.65-4.25 5.09q0 13.65 0 27.32v19.3c0 1.74.4 2.55 2.37 2.73a70.63 70.63 0 0 0 10.17.42c4.24-.21 8.49-.6 12.47-2.23a14 14 0 0 0 9.2-12.87c.28-5.97-2.53-10.47-7.8-13.4zm-16.69-21.43a25.06 25.06 0 0 1 9.37.74c3.3 1 5.47 3.06 5.89 6.63.47 4-1 7.11-4.27 8.91-3.92 2.14-8.21 1.77-12.45 1.64-1.15 0-1.26-1-1.28-1.86-.06-2.3 0-4.61 0-6.91h-.05v-6.18c-.06-2.05.96-2.84 2.79-2.97zm10 43.43a16.34 16.34 0 0 1-2.82.69c-1.44.18-2.9.21-3.52.25-7.32-.09-6.4.35-6.48-5.72v-12.72c0-2.53.15-2.6 2.72-2.68a27.51 27.51 0 0 1 10.39 1.23c4.53 1.63 7 5.06 7 9.58s-2.77 7.88-7.31 9.34zM88.87 442.35c-1.56-1.39-3.48-2.13-5.83-3.32l2.31-1.29c4.37-2.74 6.62-6.69 6.35-11.87-.26-5-3.19-8.21-7.53-10.31a15.12 15.12 0 0 0-3.76-1.31 56.28 56.28 0 0 0-17.38-.19c-3.7.43-3.48.41-3.48 4q0 17.83-.05 35.68v12.38c0 1.47.46 2.11 2 2.3a59.79 59.79 0 0 0 11.26.43c4.35-.29 8.7-.76 12.73-2.69a14.44 14.44 0 0 0 3.38-23.81zm-22.5-20.85a2.05 2.05 0 0 1 2-2.44 22 22 0 0 1 11.09.89 7.35 7.35 0 0 1 5.08 6.49c.38 3.56-.73 6.45-3.85 8.39a14.38 14.38 0 0 1-8.45 2.08c-6.59-.08-5.74.7-5.8-5.21-.08-3.42 0-6.79-.07-10.2zm12.87 40.8c-3.65 1.2-7.41 1-11.16.85-1.52-.05-1.71-1-1.7-2.22v-16.72c0-1.3.47-2 1.88-2.07 3.77-.08 7.52-.07 11.13 1.19 4.53 1.59 7 5 7 9.53s-2.69 7.98-7.15 9.44z" fill="#808285"/><path d="M134.42 453.47c-1-4.68-3-8.67-7.35-11.05.53-1 1.46-1.1 2.18-1.51 5.19-3 8.21-8.8 7.46-14.34a13.72 13.72 0 0 0-11-12.15c-6.34-1.52-12.76-1.06-19.19-.32-3.74.43-3.2.86-3.2 3.83q0 23.52 0 47c0 3.35 0 3.35 3.43 3.34s3.37 0 3.38-3.42v-17.5c0-1.8.46-2.73 2.45-2.6s3.89 0 5.83.1a8.63 8.63 0 0 1 7.71 5.24 32.8 32.8 0 0 1 2 6.24c.52 2.12.93 4.27 1.51 6.37 1.68 6.06 2 6.23 8.27 5.34.09 0 .17-.14.48-.41a106.53 106.53 0 0 1-3.96-14.16zm-9-16.21a13.27 13.27 0 0 1-7.63 2 99.39 99.39 0 0 0-5.46 0c-1.55.06-2.19-.59-2.15-2.14.06-2.67 0-5.34 0-8h.39c0-2.42.1-4.86 0-7.28-.09-1.86.72-2.47 2.47-2.75a21 21 0 0 1 10.75.88 8.49 8.49 0 0 1 5.95 7.55c.38 4.04-.71 7.46-4.32 9.74z" fill="#818386"/><path d="M639.82 435.63a15.9 15.9 0 0 0-24.88-2.54c-.64.64-1 1.68-2.35 1.87l-.19-3.58c0-.7.14-1.6-.67-1.93a7.6 7.6 0 0 0-5-.11c-1.3.39-.73 1.88-.73 2.89q0 24.24.12 48.47c0 3.52 0 3.52 3.31 3.56 3.76 0 3.76 0 3.78-3.74v-17.35c2.34 2.24 4.06 4.13 6.49 5a17 17 0 0 0 19.48-5.95c5.11-7.08 5.41-19.26.64-26.59zm-4.85 19.93c-1.82 5.44-6.78 8.78-11.93 8-5.87-.85-9.61-5.13-9.8-11.23v-2.91c0-1.45-.11-2.92 0-4.36.71-7.89 9-13.24 15.75-10.11 3.84 1.79 5.77 5.15 6.56 9.09a22.19 22.19 0 0 1-.58 11.52z" fill="#808285"/><path d="M187.48 464.84q-8-23.25-15.9-46.48c-1.8-5.22-.53-4.59-6.49-4.63-3.47 0-3.49 0-4.59 3.24q-8.11 23.74-16.21 47.52c-.37 1.11-1.11 2.19-.59 3.47a6.83 6.83 0 0 0 3.23.32c3.31 0 3.33 0 4.35-3l3.85-11.75a2.74 2.74 0 0 1 3.13-2.27c4.86.09 9.72.11 14.57 0 2-.05 2.79.77 3.32 2.51.92 3 2 6 3 9 2 6 2 6 8.31 5.53a2.34 2.34 0 0 0 .68-.25 6.45 6.45 0 0 0-.66-3.21zm-29.91-19.39c2.52-8.28 5.64-16.06 7.94-24.19 2.45 8.15 5.66 15.9 8 24.19z" fill="#818386"/><path d="M528.97 441.91c-1.83-6.71-6.1-11.32-13-13-7.12-1.72-13.52-.16-18.72 5.17-4 4.16-5.49 9.33-5.28 15.7 0-.06 0 .55 0 1.15.5 7.8 3.89 13.79 11.28 16.86a19.17 19.17 0 0 0 21.43-4.71c5.48-6.17 6.4-13.46 4.29-21.17zm-8.84 16.34c-4.29 7.17-13.73 7.46-18.42.57-3.81-5.6-3.7-14.7 0-20.36 4.14-6.37 14.9-6.63 18.72 1a21.08 21.08 0 0 1 2.28 9.25 18.79 18.79 0 0 1-2.58 9.55zm-489.06 7.58c-.72-3.49-.43-7-.47-10.54-.05-4.37.12-8.75-.09-13.12-.23-4.94-1.74-9.5-6.44-11.91-6.72-3.43-13.45-2.35-19.92.92-2 1-.34 2.54-.06 3.78.33 1.45 1.27 1.06 2.23.56a20.49 20.49 0 0 1 8.08-2 8.34 8.34 0 0 1 9.21 7.41c.18 1.63-.25 2.59-2.1 2.52a33.81 33.81 0 0 0-7.23.75 21.18 21.18 0 0 0-9.91 4.3 12 12 0 0 0-3.71 13.18c1.64 4.67 5.66 7.29 11 7.44 4.82.13 8.69-1.78 12.28-5.42a5.79 5.79 0 0 1 .58 1.46c0 3.5.71 3.09 3.84 3.11a5.77 5.77 0 0 1 .72 0c1.89.2 2.32-.84 1.99-2.44zm-7.65-13.2c-.09 1.69.1 3.41-.47 5-1.48 4.26-6.81 7.2-11.19 6.08a5.71 5.71 0 0 1-4.53-4.72c-.56-3.2.19-6.06 3-8a16.66 16.66 0 0 1 7.18-2.42c.6-.08 1.21-.1 1.81-.12 4.39-.13 4.39-.13 4.2 4.18zm307.38 13.43c-.92-5.18-.35-10.41-.49-15.61-.08-3 .11-6.08-.15-9.09-.39-4.66-2-8.94-6.41-11.16-6.71-3.36-13.42-2.39-19.89.92-2 1.05-.35 2.54-.09 3.78.3 1.44 1.26 1.1 2.21.6a20.59 20.59 0 0 1 8.42-2 8.15 8.15 0 0 1 8.37 5.16c1.46 3.74.85 4.69-3.12 4.88-.37 0-.73 0-1.09.05-4.87.49-9.62 1.4-13.69 4.35a11.65 11.65 0 0 0-4.94 11.77 10.37 10.37 0 0 0 7.95 9 14.85 14.85 0 0 0 13.36-2.8c.76-.59 1.25-1.51 2.44-1.83.26.43.45.61.48.83.57 3.47.57 3.47 3.94 3.36a5.77 5.77 0 0 1 .72 0c1.62.07 2.26-.63 1.98-2.21zm-7.85-9.15a9.74 9.74 0 0 1-11.34 6.82 5.81 5.81 0 0 1-4.45-4.39c-.7-2.86-.26-5.56 2.09-7.66a14.1 14.1 0 0 1 7.29-3 22.27 22.27 0 0 1 3.27-.21c3.75-.1 3.75-.09 3.78 3.79a40 40 0 0 1-.64 4.65zm357.16 9c-.76-3.61-.43-7.26-.48-10.9-.06-4.49.11-9-.13-13.48-.39-7.15-4.1-11.45-10.67-12.88a22.71 22.71 0 0 0-14.54 1.85c-2.32 1.05-2.34 1.2-1.52 3.57a3.15 3.15 0 0 0 1.22 1.94 25.2 25.2 0 0 1 9.28-2.6 8.48 8.48 0 0 1 8.7 4.72c1.77 3.93 1 5.08-3.24 5.34-4.77.3-9.42 1.16-13.55 3.75s-6.45 6.69-5.94 11.69c.43 4.78 3.07 8.27 7.71 9.63a14.71 14.71 0 0 0 13.74-2.69c.75-.57 1.22-1.53 2.66-1.79a7.85 7.85 0 0 1 .31 1.6c-.13 2.08.85 2.85 2.85 2.59a10 10 0 0 1 1.82 0c1.65.08 2.08-.83 1.78-2.34zm-10.67-4.48a9.68 9.68 0 0 1-8.13 2.33 5.6 5.6 0 0 1-4.7-4.08 7.37 7.37 0 0 1 1.43-7.5 9.79 9.79 0 0 1 4.64-2.76 21.56 21.56 0 0 1 6.09-1c4.14-.08 4.14-.12 4 4.36.13 3.23-.64 6.31-3.33 8.69z" fill="#808285"/><defs /></svg>